PathFileType	4	(X/Y/Z)	/Users/visionmauri/Downloads/Videos/OAW09-top_Sports2D/OAW09-top_Sports2D_m_person00.trc
DataRate	CameraRate	NumFrames	NumMarkers	Units	OrigDataRate	OrigDataStartFrame	OrigNumFrames
30.0	30.0	7	22	m	30.0	774	2065
Frame#	Time	Hip			RHip			RKnee			RAnkle			RBigToe			RSmallToe			RHeel			LHip			LKnee			LAnkle			LBigToe			LSmallToe			LHeel			Neck			Head			Nose			RShoulder			RElbow			RWrist			LShoulder			LElbow			LWrist			
		X1	Y1	Z1	X2	Y2	Z2	X3	Y3	Z3	X4	Y4	Z4	X5	Y5	Z5	X6	Y6	Z6	X7	Y7	Z7	X8	Y8	Z8	X9	Y9	Z9	X10	Y10	Z10	X11	Y11	Z11	X12	Y12	Z12	X13	Y13	Z13	X14	Y14	Z14	X15	Y15	Z15	X16	Y16	Z16	X17	Y17	Z17	X18	Y18	Z18	X19	Y19	Z19	X20	Y20	Z20	X21	Y21	Z21	X22	Y22	Z22
774	25.812499999999996	7.3881194322607575	0.17200489242469952	0.0301	7.394914453109554	0.17900624267348078	0.0301	7.545531426020381	0.14347743598109228	0.129	7.671462805693391	0.13081477053767834	0.023	7.714275250259913	0.07553598005137004	0.2179	7.7038995781530115	0.08170210651101384	0.1804	7.698680215477337	0.13742556483583612	-0.0119	7.3915684775130055	0.17094713180204277	0.0301	7.5390424291672264	0.1195816851968808	0.129	7.666257959788998	0.09578905706975348	0.023	7.7035371208680425	0.02608198906847759	0.2179	7.708079375835223	0.03901409620850638	0.1804	7.697062220165692	0.11338714881009719	-0.0119	7.192454650486015	0.16746999605630158	0.0008	7.13053705115207	0.14239486796666662	0.0655	7.182818057786271	0.1301957344780269	0.1076	7.218284066589141	0.18141873994143867	-0.01275	7.324971391662624	0.18513098976664463	0.0702	7.394845240831301	0.1398353344742465	0.1076	7.212727404370778	0.17510606817883906	-0.01275	7.324419859865489	0.18769907414894976	0.0702	7.401988858202162	0.1524360815552166	0.1076
775	25.84584948320413	7.390116824473971	0.16526001854105674	0.0301	7.3963566472513715	0.17072824182999086	0.0301	7.546506414430466	0.13906879965260185	0.129	7.6713502942468335	0.12951429355271632	0.023	7.714979664076791	0.07827591290532368	0.2179	7.704084432098099	0.08204328567957245	0.1804	7.697987610822161	0.13528403169217887	-0.0119	7.394320531247595	0.16673521633342486	0.0301	7.540749016791839	0.11959249393334127	0.129	7.666835064776774	0.09603059535153564	0.023	7.703942740766258	0.02635483351822511	0.2179	7.708013246851331	0.040825495920460426	0.1804	7.697603231404862	0.1129997496228755	-0.0119	7.193828318213181	0.1684684845245539	0.0008	7.131456217081809	0.1458864874510831	0.0655	7.179486836692533	0.13222263598618686	0.1076	7.220114018485844	0.17476903767163715	-0.01275	7.326034726050751	0.16588662923534384	0.0702	7.3988762857876775	0.1389608772265349	0.1076	7.214293102502511	0.17844850450866187	-0.01275	7.326812530740864	0.18875177384782715	0.0702	7.40645121087934	0.15349885322058826	0.1076
776	25.879198966408264	7.391762235329685	0.1597254295764812	0.0301	7.398882801491486	0.16301923659828546	0.0301	7.548142588068606	0.1354421854752424	0.129	7.671610016378051	0.12861855271620923	0.023	7.715676430031976	0.08152143499123249	0.2179	7.704212211692286	0.08403223240137137	0.1804	7.696651046627434	0.1338931024110601	-0.0119	7.397548606589603	0.1619287815590242	0.0301	7.54415078029509	0.11883876573242597	0.129	7.667405315707301	0.09490543266570876	0.023	7.704336565173384	0.026051653255376325	0.2179	7.707567658631123	0.040929749127663666	0.1804	7.697672553516637	0.11037036662530876	-0.0119	7.19288674616803	0.16984481746499963	0.0008	7.129870599271441	0.15221682723233942	0.0655	7.173477145920962	0.13476991012637735	0.1076	7.220568686261423	0.168253536978293	-0.01275	7.327892430525821	0.15289228511571862	0.0702	7.406527655632498	0.13813302375712078	0.1076	7.2156866468105685	0.18274924704005857	-0.01275	7.3307681839453025	0.18831859533169396	0.0702	7.412440305003668	0.15391403868552397	0.1076
777	25.912548449612398	7.392345872035903	0.15642759617605598	0.0301	7.399746832483131	0.1562859182954849	0.0301	7.550035058011835	0.1321300842969748	0.129	7.671137437639272	0.12858593199839866	0.023	7.715566253399465	0.08515843335000181	0.2179	7.7043073144391245	0.08876708483147128	0.1804	7.694805751779078	0.13416678921303288	-0.0119	7.399127893281255	0.15829821743312494	0.0301	7.547365234492686	0.11795636488248158	0.129	7.667673635909302	0.09360402477526415	0.023	7.704734962519085	0.025547912749546885	0.2179	7.707114144135485	0.04035595578312776	0.1804	7.6971658356468025	0.1080127678265267	-0.0119	7.19089328653001	0.1706506342888152	0.0008	7.125130576697097	0.15781278189577513	0.0655	7.1687892303535845	0.13695955007177565	0.1076	7.220009425625834	0.1632487541978323	-0.01275	7.327990381845228	0.14683277818528212	0.0702	7.409416665847491	0.13563518178529055	0.1076	7.216934176345533	0.18692949664028571	-0.01275	7.333732966247757	0.18773989974933275	0.0702	7.415820176491118	0.15507067225411275	0.1076
778	25.945897932816532	7.3924766097240955	0.15370059062966832	0.0301	7.398512492943481	0.14971431191990167	0.0301	7.550519573032686	0.1283496331678678	0.129	7.667989505635326	0.12903508682289902	0.023	7.713668845787055	0.09176482753837564	0.2179	7.704666079374965	0.09615117149122972	0.1804	7.691185737433695	0.1360876769858959	-0.0119	7.3990609127051075	0.1568015255304784	0.0301	7.5488283275422265	0.11757912713919547	0.129	7.6677880646864836	0.09266740602176222	0.023	7.704773832424165	0.025503594829655467	0.2179	7.706696081154127	0.04055238654261796	0.1804	7.69623140980309	0.10641129404174836	-0.0119	7.1899433052049515	0.17085946191909707	0.0008	7.118184378470448	0.16058900635607876	0.0655	7.166706727626899	0.1378891126815274	0.1076	7.219209096638573	0.15914656544213848	-0.01275	7.325430003899691	0.14210966264078326	0.0702	7.405482017942871	0.13153371376396844	0.1076	7.218631753817609	0.19002948041004356	-0.01275	7.334638617654296	0.18808914887169467	0.0702	7.415169727138071	0.15638239415306082	0.1076
779	25.979247416020666	7.392813774593798	0.15040170258271832	0.0301	7.397270243136389	0.1447191924308649	0.0301	7.548064581385307	0.12371001948657646	0.129	7.661369153356681	0.12973049795295977	0.023	7.709940217209023	0.10208478375227867	0.2179	7.705161794854983	0.10474178500069771	0.1804	7.684052139146939	0.13859437622278925	-0.0119	7.3985258616237966	0.15618964648645445	0.0301	7.54868969302442	0.11762245263732471	0.129	7.668061814135414	0.09173718381689458	0.023	7.704341176390246	0.025976258054557826	0.2179	7.706354253453832	0.041979718507778936	0.1804	7.695644092955709	0.10416043688501057	-0.0119	7.1908301140579916	0.17123998323143805	0.0008	7.111293893862612	0.162730601902342	0.0655	7.165061028303803	0.13901863717254115	0.1076	7.218836560813416	0.15688920844707352	-0.01275	7.3229852707611105	0.13561001500089057	0.0702	7.4003617305245495	0.12725986707481007	0.1076	7.220722499654394	0.19176275884136024	-0.01275	7.334732328091674	0.18879843460605683	0.0702	7.413566889418803	0.1567904501148866	0.1076
780	26.012596899224803	7.393659722279202	0.14619072880352246	0.0301	7.397430933875057	0.1400776276286493	0.0301	7.543920441545544	0.11585602316468896	0.129	7.654098940350438	0.13058573092794548	0.023	7.707029303461071	0.1113843569939509	0.2179	7.705152449448044	0.111022470421373	0.1804	7.6752240544856205	0.14055645493810395	-0.0119	7.399004292160071	0.15431429900610108	0.0301	7.548915359117724	0.1176054085785407	0.129	7.6683836781807795	0.09066979432204492	0.023	7.703597911196144	0.026584111863441656	0.2179	7.706476439562168	0.04372866299141635	0.1804	7.696081670380075	0.10155338907657312	-0.0119	7.192904055808136	0.17195245194874195	0.0008	7.106898007723827	0.16592567802055613	0.0655	7.163749171575695	0.14160288656513437	0.1076	7.218819585982736	0.15531031892194092	-0.01275	7.322709904700466	0.13031503192065585	0.0702	7.398955711802753	0.12305201829445508	0.1076	7.22232687562297	0.19311880268027862	-0.01275	7.335349881740805	0.1890487325913683	0.0702	7.415561451107227	0.1570531966369976	0.1076
